# xmcd
#
# Track frame offsets:
# 150
# 15955
# 32045
# 51422
# 70047
# 88812
# 104077
# 117002
# 133715
# 147575
# 162109
#
# Disc length: 2380 seconds
#
#
# Revision: 7
# Processed by: cddbd v1.5.2PL0 Copyright (c) Steve Scherf et al.
# Submitted via: FreeRIP 2.951 
#
DISCID=96094a0b
DTITLE=Brooks and Dunn - Borderline
DYEAR=1996
DGENRE=Country
TTITLE0=My Maria
TTITLE1=A Man This Lonely
TTITLE2=Why Would I Say Goodbye
TTITLE3=Mama Don't Get Dressed Up for Nothing
TTITLE4=I Am That Man
TTITLE5=More Than a Margarita
TTITLE6=Redneck Rhythm and Blues
TTITLE7=My Love Will Follow You
TTITLE8=One Heartache At a Time
TTITLE9=Tequila Town
TTITLE10=White Line Casanova
EXTD=
EXTT0=
EXTT1=
EXTT2=
EXTT3=
EXTT4=
EXTT5=
EXTT6=
EXTT7=
EXTT8=
EXTT9=
EXTT10=
PLAYORDER=
